# xmcd CD database file
#
# Track frame offsets:
#	150
#	27602
#	43210
#	59792
#	86030
#	106215
#	128237
#	147887
#	183610
#	201847
#	225325
#	249705
#	269810
#	291197
#
# Disc length: 4141 seconds
#
# Revision: 0
# Processed by: cddbd v1.4PL0 Copyright (c) Steve Scherf et al.
# Submitted via: CDex 1.50Beta7
#
DISCID=e1102b0e
DTITLE=Steve Yocum - New Orleans Jazz
DYEAR=1900
DGENRE=Jazz
TTITLE0=New Orleans Stomp
TTITLE1=Basin Street Blues
TTITLE2=Muskrat Ramble
TTITLE3=Do You Know What It Means To Miss New Orleans?
TTITLE4=Shake That Thing
TTITLE5=Milneburg Joys
TTITLE6=Bourbon Street Parade
TTITLE7=South Rampart Street Parade
TTITLE8=New Orleans
TTITLE9=I Never Knew What A Girl Could Do
TTITLE10=Buddy Bolden Blues
TTITLE11=Mahogany Hall Stomp
TTITLE12=When The Saints
TTITLE13=What A Wonderful World
EXTD=
EXTT0=
EXTT1=
EXTT2=
EXTT3=
EXTT4=
EXTT5=
EXTT6=
EXTT7=
EXTT8=
EXTT9=
EXTT10=
EXTT11=
EXTT12=
EXTT13=
PLAYORDER=
